<svg width="21" height="20" viewBox="0 0 21 20" fill="none" xmlns="http://www.w3.org/2000/svg">
<path d="M10.3796 1.66699C5.77126 1.66699 2.04626 5.39199 2.04626 10.0003C2.04626 14.6087 5.77126 18.3337 10.3796 18.3337C14.9879 18.3337 18.7129 14.6087 18.7129 10.0003C18.7129 5.39199 14.9879 1.66699 10.3796 1.66699ZM12.9629 5.89199C13.0796 5.89199 13.1963 5.93366 13.2963 6.02533L14.3546 7.08366C14.5463 7.26699 14.5463 7.55866 14.3546 7.73366L13.5213 8.56699L11.8129 6.85866L12.6463 6.02533C12.7296 5.93366 12.8463 5.89199 12.9629 5.89199ZM11.3213 7.34199L13.0379 9.05866L7.98793 14.1087H6.27126V12.392L11.3213 7.34199Z" fill="#495057"/>
</svg>
