<svg width="21" height="20" viewBox="0 0 21 20" fill="none" xmlns="http://www.w3.org/2000/svg">
<path d="M10.5863 1.66699C5.97793 1.66699 2.25293 5.39199 2.25293 10.0003C2.25293 14.6087 5.97793 18.3337 10.5863 18.3337C15.1946 18.3337 18.9196 14.6087 18.9196 10.0003C18.9196 5.39199 15.1946 1.66699 10.5863 1.66699ZM13.1696 5.89199C13.2863 5.89199 13.4029 5.93366 13.5029 6.02533L14.5613 7.08366C14.7529 7.26699 14.7529 7.55866 14.5613 7.73366L13.7279 8.56699L12.0196 6.85866L12.8529 6.02533C12.9363 5.93366 13.0529 5.89199 13.1696 5.89199ZM11.5279 7.34199L13.2446 9.05866L8.1946 14.1087H6.47793V12.392L11.5279 7.34199Z" fill="#6B91F3"/>
</svg>
