<svg width="28" height="28" viewBox="0 0 28 28" fill="none" xmlns="http://www.w3.org/2000/svg">
<g clip-path="url(#clip0_262_187)">
<path d="M10 13.6759C10 12.5759 9.1 11.6759 8 11.6759C6.9 11.6759 6 12.5759 6 13.6759C6 14.7759 6.9 15.6759 8 15.6759C9.1 15.6759 10 14.7759 10 13.6759ZM12 13.6759C12 14.7759 12.9 15.6759 14 15.6759C15.1 15.6759 16 14.7759 16 13.6759C16 12.5759 15.1 11.6759 14 11.6759C12.9 11.6759 12 12.5759 12 13.6759ZM18 13.6759C18 14.7759 18.9 15.6759 20 15.6759C21.1 15.6759 22 14.7759 22 13.6759C22 12.5759 21.1 11.6759 20 11.6759C18.9 11.6759 18 12.5759 18 13.6759Z" fill="#676F7E"/>
</g>
<defs>
<clipPath id="clip0_262_187">
<rect width="28" height="28" rx="4" fill="white"/>
</clipPath>
</defs>
</svg>
