<svg width="208" height="40" viewBox="0 0 208 40" fill="none" xmlns="http://www.w3.org/2000/svg">
<path d="M56 36.5567C56 37.3084 43.4633 37.9191 27.999 37.9191C12.5347 37.9191 0 37.3103 0 36.5567C0 35.8031 12.5367 35.1924 27.999 35.1924C43.4613 35.1924 56 35.8031 56 36.5567Z" fill="#00A196"/>
<path d="M21.5371 30.116C22.6068 30.3019 23.7064 30.4409 24.8339 30.527C26.1391 26.2559 27.7915 22.9791 29.4838 20.4795C25.4666 22.4271 22.5549 27.9471 21.5371 30.116Z" fill="#EA5532"/>
<path d="M11.9779 20.8574C10.6029 21.9125 9.33966 23.0223 8.38574 23.9052C8.99242 24.5296 9.66296 25.1286 10.4173 25.6845C10.7686 23.8562 11.3074 22.2492 11.9779 20.8574Z" fill="#EA5532"/>
<path d="M19.9824 23.0459C18.0965 24.4787 16.1348 26.5654 14.7638 28.1372C15.6918 28.5385 16.6736 28.8908 17.6954 29.202C18.1584 26.72 18.9966 24.6921 19.9824 23.0459Z" fill="#EA5532"/>
<path d="M38.526 21.1006C33.028 23.334 29.8908 28.3666 28.7253 30.6118C30.7869 30.5491 32.7765 30.326 34.6564 29.9443C35.8778 26.0529 37.2148 23.1931 38.528 21.1006H38.526Z" fill="#EA5532"/>
<path d="M16.049 18.2621C13.5724 22.1418 12.2393 25.9157 12.2393 25.9157C15.3745 23.0774 18.813 22.0889 20.8406 21.7425C23.5048 18.1056 26.7018 16.8215 26.7018 16.8215C24.1055 18.2758 21.8803 24.4594 21.8803 24.4594C25.5144 20.6209 28.5119 20.0904 29.7711 20.061C33.9141 14.1711 38.1988 12.8205 38.1988 12.8205C31.1521 19.3681 29.2962 25.9157 29.2962 25.9157C32.6788 21.5761 36.7838 20.6443 38.9372 20.4701C42.6112 15.0226 45.9858 15.3651 45.9858 15.3651C39.3103 19.0021 38.9392 27.006 38.9392 27.006C42.6471 20.8225 46.357 20.0943 46.357 20.0943C43.9522 22.4511 42.3278 25.5595 41.3938 27.7205C46.6643 25.1895 50.0649 21.2551 50.0649 16.8195C50.0649 9.18942 40.0208 3 27.6298 3C15.2388 3 5.19067 9.18942 5.19067 16.8234C5.19067 18.7006 5.80533 20.4878 6.90494 22.1203C9.03829 20.2098 11.3532 19.096 13.3868 18.4501C16.7894 13.5565 21.5091 12.0943 21.5091 12.0943C19.4895 13.58 17.7792 15.6548 16.3923 17.7454" fill="#EA5532"/>
<path d="M67.414 1.552H73.378C73.378 4.982 71.208 7.306 67.372 8.286L66.672 6.844C69.528 6.13 71.138 4.716 71.404 3.008H67.414V1.552ZM70.606 9.994V12.108H75.492V9.994H70.606ZM68.786 13.55V8.538H77.312V13.55H68.786ZM75.45 0.823999H77.312V7.992H75.45V0.823999ZM83.5689 3.596V4.226C83.5689 6.382 84.1989 8.552 86.0609 9.644L84.9829 10.988C83.8489 10.302 83.1069 9.196 82.6869 7.838C82.2389 9.308 81.4829 10.568 80.3209 11.296L79.2289 9.938C81.1049 8.748 81.7769 6.438 81.7769 4.226V3.596H79.7049V2.098H85.4449V3.596H83.5689ZM86.1869 5.206V1.02H87.9089V13.116H86.1869V6.704H84.5489V5.206H86.1869ZM88.7909 0.796H90.5409V13.69H88.7909V0.796ZM97.3578 1.804V3.68C97.3578 6.074 98.3798 8.426 100.564 9.364L99.5138 10.862C98.0298 10.19 97.0358 8.916 96.4618 7.334C95.8878 9.056 94.8378 10.442 93.2978 11.17L92.1918 9.644C94.4458 8.678 95.5098 6.186 95.5098 3.68V1.804H97.3578ZM101.194 0.796H103.042V13.732H101.194V0.796Z" fill="#343A40"/>
<path d="M68.134 20.296H77.374C77.374 25.642 74.074 29.294 68.178 30.922L67.034 28.678C71.39 27.49 73.832 25.29 74.294 22.606H68.134V20.296ZM73.414 33.562V36.884H81.026V33.562H73.414ZM70.554 39.15V31.274H83.886V39.15H70.554ZM80.982 19.152H83.886V30.438H80.982V26.28H77.484V23.926H80.982V19.152ZM99.8343 28.348L98.5143 30.614C96.1823 29.998 94.5983 28.7 93.6523 27.028C92.7283 28.854 91.1003 30.284 88.7023 30.944L87.3603 28.7C90.5503 27.82 92.0243 25.642 92.1343 23.42H88.0423V21.132H92.1343V19.042H95.0383V21.132H99.1083V23.42H95.0383C95.1703 25.466 96.6663 27.534 99.8343 28.348ZM93.3883 34.156V36.884H101.176V34.156H93.3883ZM90.5283 39.15V31.868H104.014V39.15H90.5283ZM101.088 19.13H104.014V30.988H101.088V19.13ZM118.247 27.82L115.409 27.49C115.739 25.598 115.827 24.124 115.849 22.914H108.303V20.604H118.709V21.858C118.709 23.266 118.709 25.268 118.247 27.82ZM119.589 28.634L119.765 30.702C115.585 31.472 110.877 31.56 107.401 31.582L107.137 29.272C108.259 29.272 109.513 29.272 110.833 29.25V25.312H113.671V29.14C115.673 29.052 117.697 28.898 119.589 28.634ZM112.989 32.946V36.73H124.231V39.04H110.085V32.946H112.989ZM123.593 25.29H126.013V27.688H123.593V34.288H120.689V19.108H123.593V25.29ZM131.709 28.678V32.33C134.789 32.308 137.341 32.154 140.201 31.67L140.509 34.024C137.209 34.596 134.239 34.728 130.565 34.728H128.739V26.39H135.317V23.156H128.717V20.846H138.287V28.678H131.709ZM141.609 19.108H144.513V39.436H141.609V19.108ZM155.753 20.692V23.64C155.753 27.402 157.359 31.098 160.791 32.572L159.141 34.926C156.809 33.87 155.247 31.868 154.345 29.382C153.443 32.088 151.793 34.266 149.373 35.41L147.635 33.012C151.177 31.494 152.849 27.578 152.849 23.64V20.692H155.753ZM161.781 19.108H164.685V39.436H161.781V19.108ZM185.847 28.656L184.615 31.098C181.095 30.394 178.499 28.436 177.201 25.862C175.903 28.436 173.329 30.416 169.809 31.098L168.577 28.656C173.131 27.886 175.661 24.674 175.661 21.77V20.318H178.763V21.77C178.763 24.74 181.271 27.886 185.847 28.656ZM168.137 34.574H186.485V36.928H168.137V34.574ZM198.914 31.076V26.324H196.934V23.992H198.914V19.438H201.62V31.076H198.914ZM197.506 27.71L197.748 29.998C195.46 30.416 193.546 30.46 190.554 30.46H189.168V20.34H196.78V22.628H191.962V24.234H196.076V26.434H191.962V28.172C194.096 28.15 195.68 28.04 197.506 27.71ZM194.778 34.288V36.884H202.808V34.288H194.778ZM191.918 39.15V32.022H205.646V39.15H191.918ZM202.896 19.152H205.646V31.23H202.896V19.152Z" fill="#343A40"/>
</svg>
