<svg width="174" height="32" viewBox="0 0 174 32" fill="none" xmlns="http://www.w3.org/2000/svg">
<g clip-path="url(#clip0_236_4168)">
<path d="M48 29.797C48 30.4234 37.2543 30.9323 23.9991 30.9323C10.744 30.9323 0 30.425 0 29.797C0 29.169 10.7457 28.66 23.9991 28.66C37.2526 28.66 48 29.169 48 29.797Z" fill="#00A196"/>
<path d="M18.4604 24.4304C19.3773 24.5854 20.3198 24.7012 21.2863 24.773C22.405 21.2137 23.8213 18.4831 25.2719 16.4C21.8285 18.0231 19.3328 22.623 18.4604 24.4304Z" fill="#EA5532"/>
<path d="M10.2669 16.7148C9.0883 17.5941 8.00551 18.5189 7.18787 19.2546C7.70788 19.775 8.28262 20.2741 8.92922 20.7374C9.23027 19.2138 9.69213 17.8746 10.2669 16.7148Z" fill="#EA5532"/>
<path d="M17.1279 18.5385C15.5114 19.7325 13.8299 21.4713 12.6548 22.7812C13.4502 23.1156 14.2918 23.4092 15.1676 23.6686C15.5644 21.6002 16.2829 19.9103 17.1279 18.5385Z" fill="#EA5532"/>
<path d="M33.0224 16.9171C28.3098 18.7783 25.6208 22.9721 24.6218 24.8431C26.3888 24.7909 28.0943 24.605 29.7056 24.2869C30.7525 21.044 31.8985 18.6609 33.0241 16.9171H33.0224Z" fill="#EA5532"/>
<path d="M13.7564 14.5518C11.6336 17.7849 10.4909 20.9298 10.4909 20.9298C13.1782 18.5646 16.1255 17.7408 17.8634 17.4521C20.147 14.4213 22.8873 13.3513 22.8873 13.3513C20.6619 14.5632 18.7546 19.7162 18.7546 19.7162C21.8696 16.5174 24.4388 16.0754 25.5182 16.0509C29.0693 11.1426 32.7419 10.0171 32.7419 10.0171C26.7019 15.4735 25.1111 20.9298 25.1111 20.9298C28.0105 17.3134 31.5291 16.537 33.3748 16.3918C36.5239 11.8522 39.4165 12.1377 39.4165 12.1377C33.6947 15.1684 33.3765 21.8384 33.3765 21.8384C36.5547 16.6854 39.7346 16.0786 39.7346 16.0786C37.6734 18.0426 36.281 20.6329 35.4805 22.4338C39.9981 20.3246 42.9129 17.0459 42.9129 13.3496C42.9129 6.99122 34.3036 1.83337 23.6827 1.83337C13.0619 1.83337 4.44922 6.99122 4.44922 13.3529C4.44922 14.9172 4.97607 16.4065 5.91859 17.7669C7.74718 16.1749 9.73143 15.2467 11.4745 14.7084C14.391 10.6304 18.4365 9.41192 18.4365 9.41192C16.7054 10.65 15.2394 12.3791 14.0506 14.1212" fill="#EA5532"/>
</g>
<path d="M59.212 1.616H64.324C64.324 4.556 62.464 6.548 59.176 7.388L58.576 6.152C61.024 5.54 62.404 4.328 62.632 2.864H59.212V1.616ZM61.948 8.852V10.664H66.136V8.852H61.948ZM60.388 11.9V7.604H67.696V11.9H60.388ZM66.1 0.991999H67.696V7.136H66.1V0.991999ZM73.0591 3.368V3.908C73.0591 5.756 73.5991 7.616 75.1951 8.552L74.2711 9.704C73.2991 9.116 72.6631 8.168 72.3031 7.004C71.9191 8.264 71.2711 9.344 70.2751 9.968L69.3391 8.804C70.9471 7.784 71.5231 5.804 71.5231 3.908V3.368H69.7471V2.084H74.6671V3.368H73.0591ZM75.3031 4.748V1.16H76.7791V11.528H75.3031V6.032H73.8991V4.748H75.3031ZM77.5351 0.968H79.0351V12.02H77.5351V0.968ZM84.8781 1.832V3.44C84.8781 5.492 85.7541 7.508 87.6261 8.312L86.7261 9.596C85.4541 9.02 84.6021 7.928 84.1101 6.572C83.6181 8.048 82.7181 9.236 81.3981 9.86L80.4501 8.552C82.3821 7.724 83.2941 5.588 83.2941 3.44V1.832H84.8781ZM88.1661 0.968H89.7501V12.056H88.1661V0.968Z" fill="white"/>
<path d="M59.746 15.924H67.306C67.306 20.298 64.606 23.286 59.782 24.618L58.846 22.782C62.41 21.81 64.408 20.01 64.786 17.814H59.746V15.924ZM64.066 26.778V29.496H70.294V26.778H64.066ZM61.726 31.35V24.906H72.634V31.35H61.726ZM70.258 14.988H72.634V24.222H70.258V20.82H67.396V18.894H70.258V14.988ZM85.6826 22.512L84.6026 24.366C82.6946 23.862 81.3986 22.8 80.6246 21.432C79.8686 22.926 78.5366 24.096 76.5746 24.636L75.4766 22.8C78.0866 22.08 79.2926 20.298 79.3826 18.48H76.0346V16.608H79.3826V14.898H81.7586V16.608H85.0886V18.48H81.7586C81.8666 20.154 83.0906 21.846 85.6826 22.512ZM80.4086 27.264V29.496H86.7806V27.264H80.4086ZM78.0686 31.35V25.392H89.1026V31.35H78.0686ZM86.7086 14.97H89.1026V24.672H86.7086V14.97ZM100.747 22.08L98.4252 21.81C98.6952 20.262 98.7672 19.056 98.7852 18.066H92.6112V16.176H101.125V17.202C101.125 18.354 101.125 19.992 100.747 22.08ZM101.845 22.746L101.989 24.438C98.5692 25.068 94.7172 25.14 91.8732 25.158L91.6572 23.268C92.5752 23.268 93.6012 23.268 94.6812 23.25V20.028H97.0032V23.16C98.6412 23.088 100.297 22.962 101.845 22.746ZM96.4452 26.274V29.37H105.643V31.26H94.0692V26.274H96.4452ZM105.121 20.01H107.101V21.972H105.121V27.372H102.745V14.952H105.121V20.01ZM111.762 22.782V25.77C114.282 25.752 116.37 25.626 118.71 25.23L118.962 27.156C116.262 27.624 113.832 27.732 110.826 27.732H109.332V20.91H114.714V18.264H109.314V16.374H117.144V22.782H111.762ZM119.862 14.952H122.238V31.584H119.862V14.952ZM131.434 16.248V18.66C131.434 21.738 132.748 24.762 135.556 25.968L134.206 27.894C132.298 27.03 131.02 25.392 130.282 23.358C129.544 25.572 128.194 27.354 126.214 28.29L124.792 26.328C127.69 25.086 129.058 21.882 129.058 18.66V16.248H131.434ZM136.366 14.952H138.742V31.584H136.366V14.952ZM156.057 22.764L155.049 24.762C152.169 24.186 150.045 22.584 148.983 20.478C147.921 22.584 145.815 24.204 142.935 24.762L141.927 22.764C145.653 22.134 147.723 19.506 147.723 17.13V15.942H150.261V17.13C150.261 19.56 152.313 22.134 156.057 22.764ZM141.567 27.606H156.579V29.532H141.567V27.606ZM166.748 24.744V20.856H165.128V18.948H166.748V15.222H168.962V24.744H166.748ZM165.596 21.99L165.794 23.862C163.922 24.204 162.356 24.24 159.908 24.24H158.774V15.96H165.002V17.832H161.06V19.146H164.426V20.946H161.06V22.368C162.806 22.35 164.102 22.26 165.596 21.99ZM163.364 27.372V29.496H169.934V27.372H163.364ZM161.024 31.35V25.518H172.256V31.35H161.024ZM170.006 14.988H172.256V24.87H170.006V14.988Z" fill="white"/>
<defs>
<clipPath id="clip0_236_4168">
<rect width="48" height="30" fill="white" transform="translate(0 1)"/>
</clipPath>
</defs>
</svg>
