<svg width="16" height="17" viewBox="0 0 16 17" fill="none" xmlns="http://www.w3.org/2000/svg">
<path d="M8.00002 2.10132C6.72699 2.10132 5.50609 2.60703 4.60591 3.50721C3.70574 4.40738 3.20002 5.62828 3.20002 6.90132C3.20002 8.07572 3.87442 9.30692 4.64562 10.3461C5.42962 11.4013 6.36722 12.3301 7.00162 12.9117C7.2731 13.1636 7.62972 13.3035 8.00002 13.3035C8.37033 13.3035 8.72695 13.1636 8.99843 12.9117C9.63283 12.3301 10.5712 11.4013 11.3544 10.3461C12.1256 9.30692 12.8 8.07572 12.8 6.90132C12.8 5.62828 12.2943 4.40738 11.3941 3.50721C10.494 2.60703 9.27306 2.10132 8.00002 2.10132ZM9.60003 6.90132C9.60003 7.32567 9.43145 7.73263 9.1314 8.03269C8.83134 8.33275 8.42437 8.50132 8.00002 8.50132C7.57568 8.50132 7.16871 8.33275 6.86865 8.03269C6.5686 7.73263 6.40002 7.32567 6.40002 6.90132C6.40002 6.47697 6.5686 6.07001 6.86865 5.76995C7.16871 5.46989 7.57568 5.30132 8.00002 5.30132C8.42437 5.30132 8.83134 5.46989 9.1314 5.76995C9.43145 6.07001 9.60003 6.47697 9.60003 6.90132ZM11.536 11.4117C11.3506 11.6365 11.1599 11.8568 10.964 12.0725C11.1678 12.1301 11.3576 12.1928 11.5336 12.2605C11.9768 12.4309 12.3088 12.6245 12.5224 12.8189C12.736 13.0133 12.8 13.1765 12.8 13.3013C12.8 13.4261 12.736 13.5893 12.5224 13.7837C12.3088 13.9781 11.9768 14.1717 11.5336 14.3421C10.6488 14.6829 9.40003 14.9021 8.00002 14.9021C6.60002 14.9021 5.35122 14.6829 4.46642 14.3421C4.02322 14.1717 3.69122 13.9781 3.47762 13.7837C3.26402 13.5893 3.20002 13.4261 3.20002 13.3013C3.20002 13.1765 3.26402 13.0133 3.47762 12.8189C3.69122 12.6245 4.02322 12.4309 4.46642 12.2605C4.65325 12.189 4.84332 12.1262 5.03602 12.0725C4.83992 11.857 4.64919 11.6367 4.46402 11.4117C4.36838 11.4439 4.27343 11.478 4.17922 11.5141C3.68242 11.7053 3.25202 11.9429 2.93922 12.2269C2.62722 12.5109 2.40002 12.8741 2.40002 13.3013C2.40002 13.7293 2.62722 14.0917 2.93922 14.3757C3.25122 14.6597 3.68242 14.8973 4.17922 15.0893C5.17682 15.4733 6.52802 15.7013 8.00002 15.7013C9.47203 15.7013 10.8232 15.4725 11.8208 15.0893C12.3176 14.8973 12.748 14.6597 13.0608 14.3757C13.3728 14.0917 13.6 13.7293 13.6 13.3013C13.6 12.8733 13.3728 12.5109 13.0608 12.2269C12.7488 11.9429 12.3176 11.7053 11.8208 11.5141C11.7266 11.478 11.6317 11.4439 11.536 11.4117Z" fill="#F17C91"/>
</svg>
