<svg width="20" height="20" viewBox="0 0 20 20" fill="none" xmlns="http://www.w3.org/2000/svg">
<path d="M14.9591 7.81629C15.3311 7.44436 15.3311 6.84135 14.9591 6.46942C14.5872 6.09749 13.9842 6.09749 13.6123 6.46942L8.09524 11.9865L5.91153 9.80276C5.5396 9.43083 4.93659 9.43083 4.56466 9.80276C4.19273 10.1747 4.19273 10.7777 4.56466 11.1496L7.08509 13.6701C7.64298 14.2279 8.5475 14.2279 9.10539 13.6701L14.9591 7.81629Z" fill="#466FE1"/>
<path fill-rule="evenodd" clip-rule="evenodd" d="M4.28571 0C1.91878 0 0 1.91878 0 4.28571V15.7143C0 18.0812 1.91878 20 4.28571 20H15.7143C18.0812 20 20 18.0812 20 15.7143V4.28571C20 1.91878 18.0812 0 15.7143 0H4.28571ZM0.952381 4.28571C0.952381 2.44476 2.44477 0.952381 4.28571 0.952381H15.7143C17.5552 0.952381 19.0476 2.44477 19.0476 4.28571V15.7143C19.0476 17.5552 17.5552 19.0476 15.7143 19.0476H4.28571C2.44476 19.0476 0.952381 17.5552 0.952381 15.7143V4.28571Z" fill="#466FE1"/>
<path fill-rule="evenodd" clip-rule="evenodd" d="M4.28571 0.952381C2.44477 0.952381 0.952381 2.44476 0.952381 4.28571V15.7143C0.952381 17.5552 2.44476 19.0476 4.28571 19.0476H15.7143C17.5552 19.0476 19.0476 17.5552 19.0476 15.7143V4.28571C19.0476 2.44477 17.5552 0.952381 15.7143 0.952381H4.28571ZM14.9591 7.81629C15.3311 7.44436 15.3311 6.84135 14.9591 6.46942C14.5872 6.09749 13.9842 6.09749 13.6123 6.46942L8.09524 11.9865L5.91153 9.80276C5.5396 9.43083 4.93659 9.43083 4.56466 9.80276C4.19273 10.1747 4.19273 10.7777 4.56466 11.1496L7.08509 13.6701C7.64298 14.2279 8.5475 14.2279 9.10539 13.6701L14.9591 7.81629Z" fill="#F3F8FE"/>
</svg>
