<svg width="20" height="20" viewBox="0 0 20 20" fill="none" xmlns="http://www.w3.org/2000/svg">
<path d="M2.35 1.5H3.2V3.2H1.5V2.35C1.5 1.8825 1.8825 1.5 2.35 1.5ZM15.95 1.5C16.4175 1.5 16.8 1.8825 16.8 2.35V3.2H15.1V1.5H15.95ZM11.7 3.2V1.5H13.4V3.2H11.7ZM8.3 3.2V1.5H10V3.2H8.3ZM4.9 3.2V1.5H6.6V3.2H4.9ZM8.3 16.8V15.1H10V16.8H8.3ZM4.9 16.8V15.1H6.6V16.8H4.9ZM2.35 16.8C1.8825 16.8 1.5 16.4175 1.5 15.95V15.1H3.2V16.8H2.35ZM1.5 11.7H3.2V13.4H1.5V11.7ZM1.5 8.3H3.2V10H1.5V8.3ZM1.5 4.9H3.2V6.6H1.5V4.9ZM16.8 4.9V6.6H15.1V4.9H16.8ZM15.525 10C17.14 10 18.5 11.36 18.5 12.975C18.5 15.185 15.525 18.5 15.525 18.5C15.525 18.5 12.55 15.185 12.55 12.975C12.55 11.36 13.91 10 15.525 10ZM15.525 14.08C16.12 14.08 16.63 13.57 16.545 13.06C16.545 12.55 16.035 12.04 15.525 12.04C15.015 12.04 14.505 12.465 14.505 13.06C14.505 13.57 14.93 14.08 15.525 14.08Z" fill="white"/>
</svg>
