<svg width="20" height="20" viewBox="0 0 20 20" fill="none" xmlns="http://www.w3.org/2000/svg">
<path d="M10.0148 3H4.18144C3.87202 3 3.57527 3.12292 3.35648 3.34171C3.13769 3.5605 3.01477 3.85725 3.01477 4.16667V12.7222C3.01477 13.0316 3.13769 13.3284 3.35648 13.5472C3.57527 13.766 3.87202 13.8889 4.18144 13.8889H15.8481C16.1575 13.8889 16.4543 13.766 16.6731 13.5472C16.8919 13.3284 17.0148 13.0316 17.0148 12.7222V10.7778M10.0148 13.8889V17M6.12588 17H13.9037" stroke="#6A7187" stroke-width="1.66667" stroke-linecap="round" stroke-linejoin="round"/>
<path d="M15.0702 6.88889C15.7146 6.88889 16.2369 6.36656 16.2369 5.72222C16.2369 5.07789 15.7146 4.55556 15.0702 4.55556C14.4259 4.55556 13.9036 5.07789 13.9036 5.72222C13.9036 6.36656 14.4259 6.88889 15.0702 6.88889Z" stroke="#6A7187" stroke-width="1.66667"/>
<path d="M15.0703 8.44444V6.88889M15.0703 4.55556V3M12.7129 7.08333L14.06 6.30556M16.0807 5.13889L17.4278 4.36111M12.7129 4.36111L14.06 5.13889M16.0807 6.30556L17.4278 7.08333" stroke="#6A7187" stroke-width="1.66667" stroke-linecap="round" stroke-linejoin="round"/>
</svg>
