<svg width="20" height="20" viewBox="0 0 20 20" fill="none" xmlns="http://www.w3.org/2000/svg">
<g clip-path="url(#clip0_238_4262)">
<path d="M8.86166 1.69947C9.16578 1.46266 9.53606 1.32657 9.92103 1.3101C10.306 1.29364 10.6865 1.39763 11.0097 1.60761L11.1386 1.7004L18.9113 7.75047C19.5797 8.27104 19.2543 9.32052 18.4487 9.40682L18.3411 9.41239H17.4168V16.8358C17.417 17.304 17.2403 17.755 16.9222 18.0983C16.6042 18.4416 16.1682 18.6519 15.7017 18.687L15.5627 18.6916H4.43759C3.96996 18.6916 3.51963 18.5146 3.17682 18.1963C2.83401 17.8779 2.62404 17.4417 2.58897 16.975L2.58341 16.8358V9.41239H1.6591C0.812667 9.41239 0.424216 8.38425 1.00736 7.821L1.08894 7.75047L8.86166 1.69947ZM10.0001 3.16467L4.08993 7.76532C4.30223 7.93699 4.43759 8.19959 4.43759 8.49374V16.8358H7.21885V12.1962C7.21885 11.4579 7.51188 10.7498 8.03347 10.2277C8.55506 9.70568 9.26248 9.41239 10.0001 9.41239C10.7378 9.41239 11.4452 9.70568 11.9668 10.2277C12.4884 10.7498 12.7814 11.4579 12.7814 12.1962V16.8358H15.5627V8.49374C15.5627 8.19959 15.698 7.93699 15.9103 7.76532L10.0001 3.16467ZM10.0001 11.2682C9.75424 11.2682 9.51843 11.366 9.34457 11.54C9.17071 11.714 9.07303 11.9501 9.07303 12.1962V16.8358H10.9272V12.1962C10.9272 11.9501 10.8295 11.714 10.6557 11.54C10.4818 11.366 10.246 11.2682 10.0001 11.2682Z" fill="#BCC4DD"/>
</g>
<defs>
<clipPath id="clip0_238_4262">
<rect width="20" height="20" fill="white"/>
</clipPath>
</defs>
</svg>
