<svg width="20" height="20" viewBox="0 0 20 20" fill="none" xmlns="http://www.w3.org/2000/svg">
<path d="M9.99996 2C8.72692 2 7.50602 2.50571 6.60584 3.40589C5.70566 4.30607 5.19995 5.52697 5.19995 6.80001C5.19995 7.93521 5.44155 8.67841 6.09995 9.50001L9.99996 14L13.9 9.50001C14.5584 8.67841 14.8 7.93521 14.8 6.80001C14.8 5.52697 14.2943 4.30607 13.3941 3.40589C12.4939 2.50571 11.273 2 9.99996 2Z" stroke="white" stroke-width="1.66667" stroke-linecap="round" stroke-linejoin="round"/>
<path d="M4.4 12.5144C2.9192 13.096 2 13.9048 2 14.8C2 16.568 5.5816 18 10 18C14.4184 18 18 16.568 18 14.8C18 13.9048 17.0808 13.096 15.6 12.5144" stroke="white" stroke-width="1.66667" stroke-linecap="round" stroke-linejoin="round"/>
<path d="M9.99995 7.6C10.4418 7.6 10.8 7.24183 10.8 6.8C10.8 6.35817 10.4418 6 9.99995 6C9.55812 6 9.19995 6.35817 9.19995 6.8C9.19995 7.24183 9.55812 7.6 9.99995 7.6Z" stroke="white" stroke-width="1.66667" stroke-linecap="round" stroke-linejoin="round"/>
</svg>
