<svg width="20" height="20" viewBox="0 0 20 20" fill="none" xmlns="http://www.w3.org/2000/svg">
<path d="M12.6803 8.05742H7.31991C7.06738 8.05802 6.85534 7.97255 6.68381 7.80102C6.51228 7.62949 6.42651 7.41716 6.42651 7.16403C6.42711 6.91149 6.51288 6.69946 6.68381 6.52793C6.85475 6.3564 7.06678 6.27063 7.31991 6.27063H12.6803C12.9328 6.27123 13.1449 6.35699 13.3164 6.52793C13.4879 6.69886 13.5737 6.9109 13.5737 7.16403C13.5743 7.41656 13.4888 7.62859 13.3173 7.80012C13.1458 7.97166 12.9334 8.05742 12.6803 8.05742Z" fill="white"/>
<path d="M8.66001 13.1945L9.1067 12.7478L8.61534 12.2564C8.43666 12.0777 8.34732 11.8692 8.34732 11.631C8.34732 11.3928 8.43666 11.1843 8.61534 11.0056L10.0001 9.62087C10.1937 9.4273 10.417 9.33051 10.6701 9.33051C10.9233 9.33051 11.1466 9.4273 11.3402 9.62087C11.5338 9.81444 11.6305 10.0378 11.6305 10.2909C11.6305 10.544 11.5338 10.7674 11.3402 10.961L10.8935 11.4077L11.3849 11.899C11.5635 12.0777 11.6529 12.2862 11.6529 12.5244C11.6529 12.7626 11.5635 12.9711 11.3849 13.1498L10.0001 14.5345C9.80653 14.7281 9.58318 14.8249 9.33005 14.8249C9.07692 14.8249 8.85357 14.7281 8.66001 14.5345C8.46644 14.341 8.36965 14.1176 8.36965 13.8645C8.36965 13.6114 8.46644 13.388 8.66001 13.1945Z" fill="white"/>
<circle cx="10" cy="10" r="7.15" stroke="white" stroke-width="1.7"/>
</svg>
