<svg width="20" height="20" viewBox="0 0 20 20" fill="none" xmlns="http://www.w3.org/2000/svg">
<path d="M10.8333 12.5V5.83335M10.8333 12.5L15.42 15.1208C15.5467 15.1932 15.6902 15.2311 15.8361 15.2306C15.9821 15.2301 16.1253 15.1913 16.2515 15.118C16.3778 15.0448 16.4825 14.9397 16.5554 14.8133C16.6283 14.6868 16.6666 14.5434 16.6667 14.3975V3.93585C16.6666 3.78992 16.6283 3.64656 16.5554 3.52011C16.4825 3.39366 16.3778 3.28856 16.2515 3.21532C16.1253 3.14209 15.9821 3.10328 15.8361 3.10279C15.6902 3.10229 15.5467 3.14013 15.42 3.21251L10.8333 5.83335M10.8333 12.5H8.33333M10.8333 5.83335H5.83333C4.94928 5.83335 4.10143 6.18454 3.47631 6.80966C2.85119 7.43478 2.5 8.28263 2.5 9.16668C2.5 10.0507 2.85119 10.8986 3.47631 11.5237C4.10143 12.1488 4.94928 12.5 5.83333 12.5M8.33333 12.5V16.25C8.33333 16.5815 8.20164 16.8995 7.96722 17.1339C7.7328 17.3683 7.41485 17.5 7.08333 17.5C6.75181 17.5 6.43387 17.3683 6.19945 17.1339C5.96503 16.8995 5.83333 16.5815 5.83333 16.25V12.5M8.33333 12.5H5.83333" stroke="#BCC4DD" stroke-width="1.66667" stroke-linecap="round" stroke-linejoin="round"/>
</svg>
