<svg width="20" height="20" viewBox="0 0 20 20" fill="none" xmlns="http://www.w3.org/2000/svg">
<path d="M7.42857 4.16669H5.71429C5.25963 4.16669 4.82359 4.34228 4.5021 4.65484C4.18061 4.9674 4 5.39133 4 5.83335V15.8334C4 16.2754 4.18061 16.6993 4.5021 17.0119C4.82359 17.3244 5.25963 17.5 5.71429 17.5H14.2857C14.7404 17.5 15.1764 17.3244 15.4979 17.0119C15.8194 16.6993 16 16.2754 16 15.8334V5.83335C16 5.39133 15.8194 4.9674 15.4979 4.65484C15.1764 4.34228 14.7404 4.16669 14.2857 4.16669H12.5714" stroke="white" stroke-width="1.66667" stroke-linecap="round" stroke-linejoin="round"/>
<path d="M7.42847 14.1667V10.8333M9.9999 14.1667V13.3333M12.5713 14.1667V12.5M7.42847 4.16667C7.42847 3.72464 7.60908 3.30072 7.93057 2.98816C8.25206 2.67559 8.6881 2.5 9.14275 2.5H10.857C11.3117 2.5 11.7477 2.67559 12.0692 2.98816C12.3907 3.30072 12.5713 3.72464 12.5713 4.16667C12.5713 4.60869 12.3907 5.03262 12.0692 5.34518C11.7477 5.65774 11.3117 5.83333 10.857 5.83333H9.14275C8.6881 5.83333 8.25206 5.65774 7.93057 5.34518C7.60908 5.03262 7.42847 4.60869 7.42847 4.16667Z" stroke="white" stroke-width="1.66667" stroke-linecap="round" stroke-linejoin="round"/>
</svg>
