<svg width="20" height="20" viewBox="0 0 20 20" fill="none" xmlns="http://www.w3.org/2000/svg">
<path d="M7.29069 17.9924C6.90035 17.9901 6.52135 17.861 6.21082 17.6246L4.55503 16.3931C4.17292 16.0953 3.91939 15.6626 3.8465 15.1837C3.77361 14.7049 3.88689 14.2163 4.16308 13.8184C4.30921 13.6027 4.40208 13.3554 4.43406 13.0968C4.46604 12.8383 4.43623 12.5759 4.34705 12.3311L4.29906 12.2031C4.23697 11.9816 4.12349 11.7778 3.96783 11.6083C3.81217 11.4388 3.61871 11.3083 3.40317 11.2276H3.27519C2.80794 11.0705 2.42154 10.7356 2.19989 10.2954C1.97824 9.85525 1.93923 9.34546 2.09134 8.87672L2.74725 6.79771C2.80763 6.55684 2.9188 6.33164 3.07331 6.13719C3.22781 5.94275 3.42209 5.78355 3.64314 5.67025C3.849 5.56422 4.07423 5.50105 4.30522 5.48456C4.5362 5.46806 4.76813 5.49859 4.98697 5.5743C5.22525 5.65446 5.47951 5.67524 5.72765 5.63483C5.97579 5.59441 6.2103 5.49403 6.4108 5.34241L6.51478 5.26245C6.69628 5.11768 6.84296 4.93404 6.94402 4.72507C7.04508 4.5161 7.09794 4.28713 7.09871 4.05502V3.86311C7.09656 3.37385 7.28785 2.90355 7.63092 2.5546C7.974 2.20566 8.44108 2.00632 8.93048 2H10.9702C11.2083 2.00064 11.444 2.0483 11.6636 2.14024C11.8832 2.23218 12.0825 2.36659 12.2501 2.53574C12.6023 2.89381 12.7979 3.37696 12.794 3.8791V4.103C12.7899 4.32349 12.8378 4.54186 12.9336 4.74048C13.0295 4.9391 13.1707 5.11242 13.3459 5.24645L13.4339 5.31042C13.6134 5.445 13.8229 5.53419 14.0443 5.57039C14.2658 5.60659 14.4927 5.58873 14.7058 5.51832L14.9777 5.43037C15.2081 5.35401 15.4516 5.32483 15.6935 5.34456C15.9355 5.3643 16.171 5.43254 16.386 5.54522C16.601 5.65791 16.7911 5.81272 16.9449 6.00043C17.0988 6.18814 17.2132 6.40491 17.2814 6.63779L17.9134 8.65283C18.0596 9.11852 18.0196 9.62273 17.8019 10.0596C17.5841 10.4965 17.2055 10.832 16.7455 10.9957L16.5855 11.0517C16.3502 11.1287 16.1375 11.2623 15.9659 11.4408C15.7943 11.6193 15.6693 11.8371 15.6016 12.0752C15.538 12.2965 15.5229 12.529 15.5574 12.7567C15.5919 12.9844 15.6752 13.202 15.8016 13.3946L16.0096 13.6984C16.2854 14.0986 16.3976 14.5891 16.3233 15.0693C16.2489 15.5495 15.9936 15.9831 15.6096 16.2812L14.0018 17.5206C13.8076 17.6691 13.585 17.7763 13.3478 17.8355C13.1105 17.8948 12.8637 17.9049 12.6224 17.8652C12.3811 17.8255 12.1505 17.7368 11.9448 17.6047C11.739 17.4725 11.5626 17.2997 11.4262 17.0968L11.3302 16.9609C11.1992 16.7641 11.0204 16.6036 10.8106 16.4946C10.6008 16.3855 10.3667 16.3314 10.1303 16.3372C9.90474 16.343 9.68368 16.4018 9.48499 16.5087C9.2863 16.6157 9.11553 16.7678 8.98648 16.9529L8.8025 17.2168C8.66607 17.4211 8.48923 17.5953 8.28287 17.7287C8.07652 17.8621 7.84502 17.9518 7.60265 17.9924C7.49891 18.0025 7.39443 18.0025 7.29069 17.9924ZM3.92311 9.69233C4.3748 9.85335 4.78238 10.1181 5.11304 10.4653C5.4437 10.8125 5.6882 11.2325 5.82687 11.6914V11.7873C5.9996 12.2644 6.05631 12.7757 5.99233 13.279C5.92835 13.7823 5.74551 14.2632 5.45892 14.682C5.40833 14.7378 5.38031 14.8105 5.38031 14.8859C5.38031 14.9612 5.40833 15.0339 5.45892 15.0898L7.1787 16.3931C7.20114 16.4108 7.22709 16.4234 7.2548 16.4301C7.28252 16.4369 7.31137 16.4377 7.3394 16.4324C7.36743 16.4271 7.39401 16.4158 7.41734 16.3994C7.44067 16.383 7.46022 16.3618 7.47466 16.3372L7.65864 16.0733C7.93612 15.6725 8.30667 15.3449 8.73855 15.1187C9.17043 14.8925 9.65074 14.7743 10.1383 14.7743C10.6259 14.7743 11.1062 14.8925 11.5381 15.1187C11.97 15.3449 12.3405 15.6725 12.618 16.0733L12.714 16.2172C12.7484 16.266 12.7997 16.3002 12.858 16.3132C12.8847 16.3171 12.912 16.3156 12.9381 16.3087C12.9642 16.3019 12.9887 16.2898 13.01 16.2732L14.6578 15.0258C14.7154 14.98 14.7534 14.9139 14.7638 14.841C14.7742 14.7682 14.7563 14.6941 14.7138 14.634L14.5058 14.3301C14.2348 13.9351 14.056 13.4843 13.9826 13.011C13.9093 12.5377 13.9432 12.0539 14.0818 11.5954C14.2224 11.1136 14.4767 10.6725 14.8233 10.3093C15.1699 9.94612 15.5987 9.67146 16.0736 9.50842L16.2336 9.45245C16.3002 9.42575 16.3536 9.37377 16.3821 9.30785C16.4106 9.24194 16.4118 9.16744 16.3855 9.10062L15.7616 7.10957C15.7466 7.07473 15.7247 7.0433 15.6972 7.01718C15.6697 6.99106 15.6372 6.97081 15.6016 6.95764C15.5781 6.9457 15.5521 6.93947 15.5257 6.93947C15.4993 6.93947 15.4732 6.9457 15.4497 6.95764L15.1777 7.0456C14.7176 7.19738 14.2276 7.2352 13.7497 7.15581C13.2717 7.07642 12.8203 6.88219 12.434 6.58981L12.402 6.51785C12.0314 6.23728 11.7309 5.87464 11.5241 5.45842C11.3173 5.0422 11.2099 4.58372 11.2102 4.11899V3.87111C11.2116 3.79404 11.1829 3.71944 11.1302 3.66321C11.0842 3.62163 11.0243 3.59881 10.9622 3.59924H8.93048C8.8979 3.60127 8.86603 3.60972 8.83672 3.62409C8.8074 3.63847 8.78122 3.65849 8.75967 3.68301C8.73811 3.70753 8.72162 3.73606 8.71112 3.76696C8.70063 3.79787 8.69634 3.83055 8.69851 3.86311V4.06302C8.69856 4.54042 8.58896 5.01146 8.37817 5.43984C8.16737 5.86822 7.861 6.2425 7.48266 6.53384L7.37868 6.6138C6.97051 6.92446 6.49217 7.12998 5.98581 7.21225C5.47945 7.29452 4.96061 7.25102 4.47504 7.08558C4.43871 7.07339 4.39939 7.07339 4.36305 7.08558C4.31791 7.11299 4.28391 7.15548 4.26706 7.20552L3.60315 9.29253C3.58 9.36361 3.58543 9.4409 3.61827 9.50805C3.65111 9.5752 3.7088 9.62695 3.77913 9.65235L3.92311 9.69233Z" fill="white"/>
<path d="M10 13C9.40666 13 8.82664 12.8241 8.33329 12.4944C7.83994 12.1648 7.45543 11.6962 7.22836 11.1481C7.0013 10.5999 6.94189 9.99667 7.05765 9.41473C7.1734 8.83279 7.45912 8.29824 7.87868 7.87868C8.29824 7.45912 8.83279 7.1734 9.41473 7.05765C9.99667 6.94189 10.5999 7.0013 11.1481 7.22836C11.6962 7.45543 12.1648 7.83994 12.4944 8.33329C12.8241 8.82664 13 9.40666 13 10C13 10.7957 12.6839 11.5587 12.1213 12.1213C11.5587 12.6839 10.7957 13 10 13ZM10 8.71429C9.74571 8.71429 9.49713 8.78969 9.2857 8.93097C9.07426 9.07224 8.90947 9.27305 8.81216 9.50798C8.71484 9.74291 8.68938 10.0014 8.73899 10.2508C8.7886 10.5002 8.91105 10.7293 9.09086 10.9091C9.27067 11.0889 9.49977 11.2114 9.74917 11.261C9.99857 11.3106 10.2571 11.2852 10.492 11.1878C10.727 11.0905 10.9278 10.9257 11.069 10.7143C11.2103 10.5029 11.2857 10.2543 11.2857 10C11.2857 9.65901 11.1503 9.33198 10.9091 9.09086C10.668 8.84975 10.341 8.71429 10 8.71429Z" fill="white"/>
</svg>
