<svg width="20" height="20" viewBox="0 0 20 20" fill="none" xmlns="http://www.w3.org/2000/svg">
<path d="M10.0001 1.66669C8.90573 1.66669 7.8221 1.88224 6.81105 2.30102C5.80001 2.71981 4.88135 3.33364 4.10752 4.10746C2.54472 5.67027 1.66675 7.78988 1.66675 10C1.66675 12.2102 2.54472 14.3298 4.10752 15.8926C4.88135 16.6664 5.80001 17.2802 6.81105 17.699C7.8221 18.1178 8.90573 18.3334 10.0001 18.3334C12.2102 18.3334 14.3298 17.4554 15.8926 15.8926C17.4554 14.3298 18.3334 12.2102 18.3334 10C18.3334 8.90567 18.1179 7.82204 17.6991 6.81099C17.2803 5.79994 16.6665 4.88129 15.8926 4.10746C15.1188 3.33364 14.2002 2.71981 13.1891 2.30102C12.1781 1.88224 11.0944 1.66669 10.0001 1.66669ZM5.89175 15.2334C6.25008 14.4834 8.43341 13.75 10.0001 13.75C11.5667 13.75 13.7501 14.4834 14.1084 15.2334C12.9412 16.1634 11.4925 16.6688 10.0001 16.6667C8.45008 16.6667 7.02508 16.1334 5.89175 15.2334ZM15.3001 14.025C14.1084 12.575 11.2167 12.0834 10.0001 12.0834C8.78341 12.0834 5.89175 12.575 4.70008 14.025C3.81357 12.8705 3.33314 11.4556 3.33341 10C3.33341 6.32502 6.32508 3.33335 10.0001 3.33335C13.6751 3.33335 16.6667 6.32502 16.6667 10C16.6667 11.5167 16.1501 12.9167 15.3001 14.025ZM10.0001 5.00002C8.38341 5.00002 7.08341 6.30002 7.08341 7.91669C7.08341 9.53335 8.38341 10.8334 10.0001 10.8334C11.6167 10.8334 12.9167 9.53335 12.9167 7.91669C12.9167 6.30002 11.6167 5.00002 10.0001 5.00002ZM10.0001 9.16669C9.66856 9.16669 9.35062 9.03499 9.1162 8.80057C8.88178 8.56615 8.75008 8.24821 8.75008 7.91669C8.75008 7.58517 8.88178 7.26722 9.1162 7.0328C9.35062 6.79838 9.66856 6.66669 10.0001 6.66669C10.3316 6.66669 10.6495 6.79838 10.884 7.0328C11.1184 7.26722 11.2501 7.58517 11.2501 7.91669C11.2501 8.24821 11.1184 8.56615 10.884 8.80057C10.6495 9.03499 10.3316 9.16669 10.0001 9.16669Z" fill="#BCC4DD"/>
</svg>
